<svg width="60" height="60" viewBox="0 0 60 60" fill="none" xmlns="http://www.w3.org/2000/svg">
<rect width="60" height="60" fill="#1E1E1E"/>
<g id="Website" clip-path="url(#clip0_0_1)">
<rect width="1728" height="5275" transform="translate(-1143 -4673)" fill="white"/>
<rect id="Rectangle 72" x="-1143.5" y="-58.5" width="1728" height="160" stroke="#E7E7E7"/>
<circle id="Ellipse 23" cx="29.5" cy="29.5" r="37.5" fill="#001D3D"/>
<circle id="Ellipse 24" cx="30" cy="30" r="29.5" fill="#001D3D" stroke="white"/>
<g id="call-192-svgrepo-com 1" clip-path="url(#clip1_0_1)">
<g id="Page-1">
<g id="Dribbble-Light-Preview">
<g id="icons">
<path id="call-[#192]" fill-rule="evenodd" clip-rule="evenodd" d="M40.5865 37.9274C39.8765 40.0848 37.0951 41.1607 35.1079 40.9813C32.3939 40.736 29.4407 39.2965 27.1989 37.711C23.9038 35.3803 20.8172 31.7752 19.0186 27.9495C17.7475 25.2462 17.4623 21.9226 19.3529 19.4585C20.0521 18.5477 20.808 18.0613 21.9442 18.0045C23.5205 17.9279 23.7413 18.8296 24.2825 20.2342C24.6858 21.2845 25.224 22.3559 25.5245 23.4446C26.0873 25.4762 24.12 25.5612 23.8716 27.2218C23.7167 28.269 24.9863 29.6735 25.5598 30.4202C26.6837 31.883 28.0346 33.1447 29.5587 34.1045C30.4312 34.655 31.8403 35.647 32.8401 35.0996C34.3795 34.2562 34.2339 31.6604 36.3867 32.539C37.5014 32.9929 38.5809 33.6479 39.645 34.2213C41.2903 35.1061 41.2136 36.023 40.5865 37.9274C41.0557 36.5045 40.1173 39.3503 40.5865 37.9274Z" fill="white"/>
</g>
</g>
</g>
</g>
</g>
<defs>
<clipPath id="clip0_0_1">
<rect width="1728" height="5275" fill="white" transform="translate(-1143 -4673)"/>
</clipPath>
<clipPath id="clip1_0_1">
<rect width="23" height="23" fill="white" transform="translate(18 18)"/>
</clipPath>
</defs>
</svg>
