<svg width="17" height="17" viewBox="0 0 17 17" fill="none" xmlns="http://www.w3.org/2000/svg">
<path id="instagram-[#167]" fill-rule="evenodd" clip-rule="evenodd" d="M4.98921 0.104319C3.60551 0.166752 2.40619 0.505048 1.43777 1.46938C0.465966 2.43877 0.13187 3.64284 0.0692821 5.01214C0.0303759 5.86679 -0.197127 12.3235 0.462584 14.0168C0.907465 15.1591 1.78367 16.0375 2.93648 16.4838C3.47439 16.693 4.08845 16.8346 4.98921 16.876C12.5209 17.2168 15.3128 17.0313 16.4902 14.0168C16.6991 13.4802 16.8428 12.8667 16.8826 11.9682C17.2268 4.41719 16.8268 2.78046 15.5141 1.46938C14.473 0.430801 13.2483 -0.276182 4.98921 0.104319ZM5.05855 15.3574C4.23391 15.3202 3.78649 15.1828 3.48793 15.0673C2.73688 14.7753 2.17274 14.2135 1.88264 13.4669C1.38024 12.1802 1.54687 6.06942 1.5917 5.08062C1.63568 4.11207 1.8319 3.22688 2.51529 2.5435C3.36107 1.69981 4.45381 1.28632 11.8942 1.62211C12.8651 1.66598 13.7524 1.8618 14.4374 2.5435C15.2832 3.38718 15.7027 4.48832 15.361 11.9001C15.3238 12.7227 15.186 13.169 15.0701 13.4669C14.3047 15.4284 12.5437 15.7007 5.05855 15.3574ZM11.9762 3.98617C11.9762 4.54469 12.4304 4.99886 12.9912 4.99886C13.5519 4.99886 14.0069 4.54469 14.0069 3.98617C14.0069 3.42765 13.5519 2.97389 12.9912 2.97389C12.4304 2.97389 11.9762 3.42765 11.9762 3.98617ZM4.13327 8.48974C4.13327 10.8824 6.07773 12.8223 8.47637 12.8223C10.875 12.8223 12.8195 10.8824 12.8195 8.48974C12.8195 6.09705 10.875 4.15841 8.47637 4.15841C6.07773 4.15841 4.13327 6.09705 4.13327 8.48974ZM5.65737 8.48974C5.65737 6.93736 6.91928 5.67786 8.47637 5.67786C10.0335 5.67786 11.2954 6.93736 11.2954 8.48974C11.2954 10.043 10.0335 11.3029 8.47637 11.3029C6.91928 11.3029 5.65737 10.043 5.65737 8.48974Z" fill="#434656"/>
</svg>
