<svg width="16" height="13" viewBox="0 0 16 13" fill="none" xmlns="http://www.w3.org/2000/svg">
<path id="twitter-[#154]" fill-rule="evenodd" clip-rule="evenodd" d="M5.032 13C11.0696 13 14.372 7.99783 14.372 3.66049C14.372 3.5181 14.372 3.37678 14.3624 3.23599C15.0048 2.77201 15.5592 2.19594 16 1.53678C15.4016 1.80236 14.7656 1.97654 14.1152 2.05333C14.8 1.64295 15.3128 0.99823 15.5584 0.237477C14.9136 0.619852 14.2088 0.889717 13.4736 1.03451C12.2304 -0.287009 10.1512 -0.351037 8.8288 0.892087C7.9768 1.69364 7.6144 2.88874 7.8792 4.02866C5.24 3.89587 2.7808 2.64957 1.1136 0.599298C0.2424 2.0992 0.688 4.01729 2.1304 4.98043C1.608 4.96523 1.0968 4.82459 0.64 4.5702V4.61186C0.6408 6.17417 1.7424 7.5194 3.2736 7.82897C2.7904 7.96097 2.2832 7.98011 1.792 7.88491C2.2216 9.22244 3.4544 10.1385 4.8584 10.1649C3.696 11.0785 2.26 11.5745 0.7816 11.5729C0.5208 11.5721 0.26 11.5569 0 11.5257C1.5016 12.4889 3.248 13 5.032 12.9976" fill="#434656"/>
</svg>
