<svg width="17" height="12" viewBox="0 0 17 12" fill="none" xmlns="http://www.w3.org/2000/svg">
<path id="youtube-[#168]" fill-rule="evenodd" clip-rule="evenodd" d="M6.79017 8.21667V3.40654C8.48355 4.21005 9.79505 4.98626 11.3462 5.82311C10.0668 6.53858 8.48355 7.34135 6.79017 8.21667ZM16.2274 1.01424C15.9352 0.626163 15.4374 0.324076 14.9074 0.224065C13.3495 -0.0742638 3.63034 -0.0751123 2.07328 0.224065C1.64824 0.304413 1.26976 0.498627 0.944633 0.800376C-0.425308 2.08258 0.00396625 8.9586 0.334175 10.0724C0.473031 10.5545 0.652536 10.9022 0.878602 11.1304C1.16986 11.4322 1.56865 11.64 2.0267 11.7331C3.30944 12.0007 9.91783 12.1503 14.8803 11.7733C15.3375 11.693 15.7422 11.4785 16.0614 11.1639C17.328 9.88686 17.2417 2.62469 16.2274 1.01424Z" fill="#434656"/>
</svg>
